#!OML:ASF F:\VICON\USERDATA\INSTALL\Justin_Nancy\Justin_Nancy.ASF
:FULLY-SPECIFIED
:DEGREES
33
root -9.06958 16.9635 -14.085 3.89349 0.927911 -0.0926975
lowerback 14.6804 0.47379 -4.95343
upperback 0.693444 0.0355892 2.95891
thorax -7.52161 0.246322 5.99576
lowerneck -18.33 -4.16839 -8.94445
upperneck 16.6603 -4.60877 6.52994
head 8.57658 -2.07293 3.09
rclavicle -8.34896e-015 -1.98785e-015
rhumerus -50.1346 14.9706 -96.0488
rradius 104.624
rwrist -2.17898
rhand -16.4393 29.7662
rfingers 7.12502
rthumb 9.77634 0.0131643
lclavicle -8.34896e-015 -1.98785e-015
lhumerus -46.168 -10.3708 96.7434
lradius 90.5299
lwrist 17.5401
lhand -13.1655 13.4654
lfingers 7.12502
lthumb 12.9336 43.0446
rfemur -17.9903 -5.47615 8.30582
rtibia 83.9123
rfoot -0.259684 -6.01756
rtoes -1.7582
lfemur -25.7574 1.05965 -33.7272
ltibia 44.5634
lfoot -11.7932 3.96627
ltoes 1.87765
34
root -8.97361 16.9478 -13.5351 4.35325 1.1297 0.809565
lowerback 14.6929 0.303257 -5.40776
upperback 0.493522 -0.298765 2.58261
thorax -7.69775 0.104134 5.92112
lowerneck -18.9798 -3.99463 -8.81413
upperneck 17.1393 -4.32551 6.33293
head 8.82276 -1.94291 3.03874
rclavicle -8.44835e-015 1.98785e-014
rhumerus -51.1176 13.9655 -95.8205
rradius 105.166
rwrist -3.53024
rhand -16.5748 29.4241
rfingers 7.12502
rthumb 9.64558 -0.335075
lclavicle -8.44835e-015 1.98785e-014
lhumerus -45.4139 -10.6486 96.486
lradius 90.5463
lwrist 17.268
lhand -15.3677 11.8244
lfingers 7.12502
lthumb 10.8101 41.5262
rfemur -21.7439 -6.71125 7.30061
rtibia 85.1225
rfoot -1.43136 -6.00359
rtoes -0.672463
lfemur -24.6471 1.16479 -34.943
ltibia 45.6904
lfoot -12.0113 3.23866
ltoes 1.75185
35
root -8.86282 16.972 -12.992 4.86281 1.53475 1.12737
lowerback 14.4977 -0.0606996 -5.17387
upperback 0.467439 -0.74522 2.43647
thorax -7.55624 -0.12891 5.71439
lowerneck -19.8452 -3.75005 -8.52339
upperneck 17.5343 -3.90589 5.85188
head 9.06027 -1.76691 2.88039
rclavicle -1.19271e-015 -2.0276e-014
rhumerus -51.658 13.4475 -95.3558
rradius 105.552
rwrist -5.06669
rhand -16.8837 29.3641
rfingers 7.12502
rthumb 9.34757 -0.408626
lclavicle -1.19271e-015 -2.0276e-014
lhumerus -44.5095 -10.5362 96.175
lradius 90.7641
lwrist 17.5436
lhand -15.6319 14.1349
lfingers 7.12502
lthumb 10.5553 43.8499
rfemur -25.1335 -7.91158 7.20307
rtibia 85.2761
rfoot -2.55524 -5.9659
rtoes -1.77077
lfemur -23.9256 1.32679 -35.5289
ltibia 46.869
lfoot -11.8907 2.42975
ltoes -4.85545
36
root -8.75168 17.0136 -12.4451 5.30581 1.7197 1.11957
lowerback 14.2494 -0.413314 -4.75977
upperback 0.495996 -1.13306 2.44627
thorax -7.33957 -0.340756 5.55612
lowerneck -20.3914 -3.38139 -8.4206
upperneck 17.7514 -3.301 5.46575
head 9.17548 -1.51376 2.81347
rclavicle -4.70126e-014 2.5842e-014
rhumerus -52.2145 13.1252 -94.7969
rradius 105.931
rwrist -6.22488
rhand -16.8569 29.4754
rfingers 7.12502
rthumb 9.37339 -0.296145
lclavicle -4.70126e-014 2.5842e-014
lhumerus -43.8329 -10.1228 95.8495
lradius 91.2228
lwrist 18.5494
lhand -15.286 16.7155
lfingers 7.12502
lthumb 10.8889 46.4132
rfemur -28.365 -8.52965 7.67212
rtibia 84.593
rfoot -3.25826 -6.02388
rtoes -3.58393
lfemur -23.3172 1.54625 -35.674
ltibia 48.132
lfoot -11.1836 1.8564
ltoes -11.3154
37
root -8.64928 17.0439 -11.8899 5.50391 1.6802 1.01355
lowerback 14.1705 -0.652733 -4.48232
upperback 0.532332 -1.39513 2.54084
thorax -7.22564 -0.481185 5.54686
lowerneck -20.4111 -2.85091 -8.18629
upperneck 17.611 -2.52369 4.96551
head 9.06084 -1.18898 2.70751
rclavicle 1.71949e-014 -3.53837e-014
rhumerus -53.0956 12.8736 -94.2047
rradius 106.459
rwrist -6.90441
rhand -16.9913 29.6513
rfingers 7.12502
rthumb 9.24377 -0.126067
lclavicle 1.71949e-014 -3.53837e-014
lhumerus -43.5484 -9.63094 95.6458
lradius 91.8897
lwrist 19.7777
lhand -15.4066 15.1226
lfingers 7.12502
lthumb 10.7726 44.8263
rfemur -31.1782 -8.47878 8.33816
rtibia 83.2123
rfoot -3.69646 -6.30188
rtoes -5.78396
lfemur -22.3836 1.84915 -35.5489
ltibia 49.4442
lfoot -9.44909 0.850354
ltoes -12.448
38
root -8.54526 17.0736 -11.3272 5.55007 1.4169 0.91626
lowerback 14.2069 -0.777746 -4.31877
upperback 0.61505 -1.52345 2.69985
thorax -7.14024 -0.551332 5.64912
lowerneck -20.679 -2.40074 -7.99009
upperneck 17.5863 -1.80589 4.36049
head 9.04053 -0.904522 2.56319
rclavicle -4.19436e-014 2.10712e-014
rhumerus -53.9435 12.732 -93.4706
rradius 107.028
rwrist -7.07476
rhand -17.2507 29.9942
rfingers 7.12502
rthumb 8.99347 0.205878
lclavicle -4.19436e-014 2.10712e-014
lhumerus -43.24 -9.12041 95.6459
lradius 92.3671
lwrist 21.0973
lhand -16.4945 10.1082
lfingers 7.12502
lthumb 9.72307 39.8638
rfemur -33.5359 -7.98596 8.88646
rtibia 81.1711
rfoot -4.67858 -6.43355
rtoes -9.01243
lfemur -21.421 2.38684 -35.3998
ltibia 50.7414
lfoot -7.20847 -0.705862
ltoes -14.1998
39
root -8.43459 17.1216 -10.749 5.46878 0.883476 0.639301
lowerback 14.2486 -0.820558 -3.99897
upperback 0.720563 -1.5146 2.90329
thorax -7.05369 -0.559509 5.68245
lowerneck -21.0036 -2.06257 -7.98069
upperneck 17.8518 -1.21737 3.9048
head 9.14795 -0.681628 2.48751
rclavicle -2.68359e-014 -1.19271e-014
rhumerus -54.6871 12.6893 -92.7043
rradius 107.469
rwrist -6.82994
rhand -17.3247 30.0001
rfingers 7.12502
rthumb 8.92205 0.2087
lclavicle -2.68359e-014 -1.19271e-014
lhumerus -43.1512 -8.58696 95.6754
lradius 92.796
lwrist 22.0353
lhand -17.3555 6.21079
lfingers 7.12502
lthumb 8.89227 36.0034
rfemur -35.4186 -6.90817 9.50415
rtibia 78.446
rfoot -5.91298 -6.22499
rtoes -11.8067
lfemur -20.5166 3.21286 -34.9901
ltibia 51.8915
lfoot -4.16044 -2.4802
ltoes -16.5646
40
root -8.32533 17.1756 -10.1794 5.4071 0.509662 0.328007
lowerback 14.2763 -0.84447 -3.65249
upperback 0.925799 -1.47904 3.07255
thorax -6.85716 -0.56137 5.65424
lowerneck -21.0748 -1.72754 -7.85674
upperneck 17.7854 -0.729202 3.64066
head 9.10434 -0.473538 2.44183
rclavicle 1.72943e-014 -2.46493e-014
rhumerus -55.3943 12.5363 -91.8918
rradius 108.043
rwrist -6.28905
rhand -17.023 30.2062
rfingers 7.12502
rthumb 9.2131 0.427493
lclavicle 1.72943e-014 -2.46493e-014
lhumerus -43.0434 -8.35605 95.6052
lradius 93.3081
lwrist 22.5885
lhand -17.8964 5.58728
lfingers 7.12502
lthumb 8.37033 35.4014
rfemur -37.0236 -5.76774 10.037
rtibia 75.1672
rfoot -6.66347 -5.44446
rtoes -14.5196
lfemur -19.7639 3.77109 -34.4572
ltibia 52.8399
lfoot -0.322089 -4.53676
ltoes -18.8746
41
root -8.2146 17.2307 -9.61041 5.2545 0.38556 0.051543
lowerback 14.4542 -0.904278 -3.30021
upperback 1.14018 -1.49193 3.27188
thorax -6.72828 -0.583667 5.67034
lowerneck -21.0389 -1.41844 -7.83059
upperneck 17.6618 -0.247249 3.33749
head 9.02524 -0.278979 2.39616
rclavicle -2.88238e-014 2.54444e-014
rhumerus -56.0032 12.4615 -91.0142
rradius 108.567
rwrist -5.79376
rhand -16.7061 30.3251
rfingers 7.12502
rthumb 9.51894 0.560108
lclavicle -2.88238e-014 2.54444e-014
lhumerus -42.9144 -8.17371 95.6372
lradius 93.6338
lwrist 22.5724
lhand -17.7233 6.53635
lfingers 7.12502
lthumb 8.53733 36.3438
rfemur -38.0837 -4.54041 10.3167
rtibia 71.3295
rfoot -6.73745 -4.12666
rtoes -16.3448
lfemur -18.9099 4.05916 -33.8655
ltibia 53.6052
lfoot 3.99868 -6.7293
ltoes -20.9698
42
root -8.09774 17.2993 -9.01936 5.25462 1.23751 -0.312461
lowerback 14.4437 -1.31626 -2.66142
upperback 1.22868 -1.91263 3.58739
thorax -6.58674 -0.809116 5.72199
lowerneck -20.8765 -1.21994 -7.93533
upperneck 17.4788 0.10076 3.08018
head 8.91372 -0.149646 2.36766
rclavicle 3.37934e-014 -1.66979e-014
rhumerus -56.2476 12.6852 -90.0043
rradius 108.711
rwrist -5.39925
rhand -16.92 30.3714
rfingers 7.12502
rthumb 9.31252 0.597061
lclavicle 3.37934e-014 -1.66979e-014
lhumerus -42.9865 -7.89893 95.8418
lradius 93.8903
lwrist 22.2466
lhand -18.0166 7.41177
lfingers 7.12502
lthumb 8.25429 37.2305
rfemur -38.5505 -3.93645 10.5396
rtibia 66.9053
rfoot -6.3237 -2.54932
rtoes -16.8374
lfemur -18.0942 3.42836 -33.0046
ltibia 54.2964
lfoot 8.67539 -8.69715
ltoes -18.5246
43
root -8.01962 17.3362 -8.45119 5.06775 -1.68904 -0.692445
lowerback 14.7323 -0.243126 -3.4396
upperback 1.53295 -0.607492 3.85251
thorax -6.56069 -0.153162 6.20723
lowerneck -21.4051 -1.05097 -7.96123
upperneck 17.701 0.429079 2.89805
head 9.0647 -0.0212577 2.35889
rclavicle 7.55382e-015 3.18055e-015
rhumerus -56.2757 12.9049 -89.0247
rradius 108.843
rwrist -5.31476
rhand -16.9878 30.5181
rfingers 7.12502
rthumb 9.24709 0.740858
lclavicle 7.55382e-015 3.18055e-015
lhumerus -42.9916 -7.7907 95.9744
lradius 94.1151
lwrist 21.9209
lhand -18.9995 7.97814
lfingers 7.12502
lthumb 7.30559 37.832
rfemur -39.7138 -0.122872 10.4406
rtibia 62.064
rfoot -5.14805 -0.236282
rtoes -17.8838
lfemur -17.6271 6.051 -32.4435
ltibia 55.1087
lfoot 12.2848 -10.2644
ltoes -12.3998
44
root -7.93261 17.3739 -7.8679 5.0158 -3.7915 -0.95875
lowerback 14.6857 0.51703 -4.11295
upperback 1.36413 0.306877 4.05012
thorax -6.84217 0.328953 6.63367
lowerneck -19.6629 -0.66317 -7.78593
upperneck 17.0988 0.791907 2.70133
head 8.53284 0.146666 2.29094
rclavicle -3.37934e-015 1.59028e-014
rhumerus -57.4471 13.1564 -88.4658
rradius 109.175
rwrist -5.22621
rhand -17.0128 29.879
rfingers 7.12502
rthumb 9.22299 0.100747
lclavicle -3.37934e-015 1.59028e-014
lhumerus -44.0716 -7.61269 96.145
lradius 94.319
lwrist 21.6913
lhand -19.2575 9.75356
lfingers 7.12502
lthumb 7.05663 39.6159
rfemur -40.2258 2.6678 10.1263
rtibia 56.7425
rfoot -4.03481 2.42987
rtoes -19.0397
lfemur -17.1906 7.91077 -31.9499
ltibia 56.1162
lfoot 14.9777 -12.0213
ltoes -6.47323
